<?xml version="1.0" encoding="utf-8"?>
<!-- Generator: Adobe Illustrator 25.0.1, SVG Export Plug-In . SVG Version: 6.00 Build 0)  -->
<svg version="1.1" id="Слой_1" xmlns="http://www.w3.org/2000/svg" xmlns:xlink="http://www.w3.org/1999/xlink" x="0px" y="0px"
	 viewBox="0 0 691 482" style="enable-background:new 0 0 691 482;" xml:space="preserve">
<style type="text/css">
	.st0{fill:#3F3D56;}
	.st1{fill:#FFFFFF;}
	.st2{fill:#F2F2F2;}
	.st3{fill:#E6E6E6;}
	.st4{fill:#F16A21;}
	.st5{fill:#FFB6B6;}
	.st6{fill:#2F2E41;}
	.st7{fill:#FF9900;}
	.woman,.man,.phone{
		transform: translateX(100%);
		transition: all .3s;
		opacity: 0;
		animation: translateX .3s linear forwards;
	}
	.man{
					animation-delay: .5s;
				}
				.phone{
					animation-delay: .3s;
				}
	@keyframes translateX {
          to {
            		transform: translateX(0);
						opacity: 1;
          }
        }

.phone1,.phone2,.phone3,.phone4,.phone5 {
	opacity: 0;
	animation: phone .3s linear forwards;
}

.phone1 {
	animation-delay: 1s;
}
.phone2 {
	animation-delay: 1.2s;
}
.phone3 {
	animation-delay: 1.3s;
}
.phone4 {
	animation-delay: 1.4s;
}
.phone5 {
	animation-delay: 1.5s;
}

@keyframes phone {
          to {
						opacity: 1;
          }
        }
				
</style>
<g class="phone">
	<path class="st0" d="M417.8,114.2V41.9C417.8,18.7,399,0,375.9,0H222.8C199.7,0,181,18.7,181,41.9v396.8
		c0,23.1,18.7,41.9,41.8,41.9h153.1c23.1,0,41.8-18.7,41.8-41.9v-273l0,0c1.5,0,2.6-1.2,2.6-2.6l0-46.2
		C420.4,115.4,419.2,114.2,417.8,114.2L417.8,114.2L417.8,114.2z"/>
	<path class="st1" d="M409.9,38.4v402.4c-24.4-1.5-12,30.7-31.7,31.7H221.9c-17.5,0-31.7-14.2-31.7-31.7V38.4
		c0-17.5,14.2-31.7,31.7-31.7h11.5c-3.1,7.7,22.2,10.2,24.1,10.2h80c8.3,0,28.4-8.4,27.7-10.2h12.9C395.7,6.6,409.9,20.8,409.9,38.4
		L409.9,38.4L409.9,38.4z"/>
	<path class="st0" d="M179.8,123.1c-1.1,0-2,0.9-2,2v16.2c0,1.1,0.9,2,2,2c1.1,0,2-0.9,2-2v-16.2C181.8,124,180.9,123.1,179.8,123.1
		z"/>
	<path class="st0" d="M179.8,171.6c-1.1,0-2,0.9-2,2V205c0,1.1,0.9,2,2,2c1.1,0,2-0.9,2-2v-31.3
		C181.8,172.5,180.9,171.6,179.8,171.6z"/>
	<path class="st0" d="M179.8,216.1c-1.1,0-2,0.9-2,2v31.3c0,1.1,0.9,2,2,2c1.1,0,2-0.9,2-2v-31.3C181.8,217,180.9,216.1,179.8,216.1
		z"/>
	<path class="st2 phone1" d="M356.9,163.6H241.2c-7.9,0-14.4-6.4-14.4-14.4V99.5c0-7.9,6.4-14.4,14.4-14.4c36.9-10.2,75.6-9.3,115.7,0
		c7.9,0,14.4,6.4,14.4,14.4v49.8C371.2,157.1,364.8,163.6,356.9,163.6L356.9,163.6z"/>
	<path class="st3 phone2" d="M368.7,215.7H229.5c-1.4,0-2.6-1.2-2.6-2.6v-34.6c0-1.4,1.2-2.6,2.6-2.6h139.2c1.4,0,2.6,1.2,2.6,2.6v34.6
		C371.2,214.6,370.1,215.7,368.7,215.7L368.7,215.7L368.7,215.7z M229.5,177c-0.9,0-1.5,0.7-1.5,1.5v34.6c0,0.9,0.7,1.5,1.5,1.5
		h139.2c0.9,0,1.5-0.7,1.5-1.5v-34.6c0-0.9-0.7-1.5-1.5-1.5H229.5L229.5,177z"/>
	<path class="st3 phone2" d="M272.5,188.6c-1,0-1.8,0.8-1.8,1.8c0,1,0.8,1.7,1.8,1.8h85.1c1,0,1.8-0.7,1.9-1.7c0-1-0.7-1.8-1.7-1.9
		L272.5,188.6L272.5,188.6L272.5,188.6z"/>
	<path class="st3 phone2" d="M272.5,199.5c-1,0-1.8,0.8-1.8,1.8c0,1,0.8,1.7,1.8,1.8h85.1c1,0,1.8-0.7,1.9-1.7c0-1-0.7-1.8-1.7-1.9
		L272.5,199.5L272.5,199.5L272.5,199.5z"/>
	<path class="st3 phone2" d="M248.6,203.1c4,0,7.2-3.2,7.2-7.2s-3.2-7.2-7.2-7.2s-7.2,3.2-7.2,7.2S244.6,203.1,248.6,203.1z"/>
	<path class="st3 phone4" d="M368.7,385.4H229.5c-1.4,0-2.6-1.2-2.6-2.6v-34.6c0-1.4,1.2-2.6,2.6-2.6h139.2c1.4,0,2.6,1.2,2.6,2.6v34.6
		C371.2,384.2,370.1,385.4,368.7,385.4L368.7,385.4L368.7,385.4z M229.5,346.7c-0.9,0-1.5,0.7-1.5,1.5v34.6c0,0.9,0.7,1.5,1.5,1.5
		l123.4-1.2c0.9,0,13.8-4.8,13.8-5.7l3.6-29.2c0-0.9-0.7-1.5-1.5-1.5H229.5L229.5,346.7z"/>
	<path class="st3 phone4" d="M272.5,363.4c-1,0-1.8,0.8-1.8,1.8c0,1,0.8,1.8,1.8,1.8c0,0,0.1,0,0.1,0h85.1c1,0,1.8-0.7,1.9-1.7
		c0-1-0.7-1.8-1.7-1.9L272.5,363.4L272.5,363.4L272.5,363.4z"/>
	<path class="st3 phone4" d="M248.6,372.7c4,0,7.2-3.2,7.2-7.2c0-4-3.2-7.2-7.2-7.2s-7.2,3.2-7.2,7.2C241.4,369.5,244.6,372.7,248.6,372.7z
		"/>
	<path class="st3 phone3" d="M368.7,313.9H229.5c-1.4,0-2.6-1.2-2.6-2.6v-34.6c0-1.4,1.2-2.6,2.6-2.6h139.2c1.4,0,2.6,1.2,2.6,2.6v34.6
		C371.2,312.7,370.1,313.9,368.7,313.9L368.7,313.9L368.7,313.9z M229.5,275.2c-0.9,0-1.5,0.7-1.5,1.5v34.6c0,0.9,0.7,1.5,1.5,1.5
		l123.4-1.2c0.9,0,13.8-4.8,13.8-5.7l3.6-29.2c0-0.9-0.7-1.5-1.5-1.5H229.5L229.5,275.2z"/>
	<path class="st3 phone3" d="M272.5,291.9c-1,0-1.8,0.8-1.8,1.8c0,1,0.8,1.8,1.8,1.8c0,0,0.1,0,0.1,0h85.1c1,0,1.8-0.7,1.9-1.7
		c0-1-0.7-1.8-1.7-1.9L272.5,291.9L272.5,291.9L272.5,291.9z"/>
	<path class="st3 phone3" d="M248.6,301.2c4,0,7.2-3.2,7.2-7.2c0-4-3.2-7.2-7.2-7.2s-7.2,3.2-7.2,7.2C241.4,298,244.6,301.2,248.6,301.2z"
		/>
	<path class="st0 phone1" d="M244.7,131.1c4.2,1.4,8.7,2.8,13.2,2.6c2.1-0.1,4-0.6,5.9-1.5c1.9-0.9,3.7-2.1,5.6-3
		c7.1-3.1,14.1,2.2,20.8,4.2c3.3,1,6.8,1.2,10-0.2c3.6-1.5,6.3-4.5,9.2-6.9c6.6-5.5,15.2-8.4,23.7-8.2c9.4,0.2,18.5,4.4,24.9,11.2
		c0.5,0.6,1.4-0.3,0.9-0.9c-5.6-5.9-13.3-9.9-21.4-11.1c-8.1-1.2-16.6,0.4-23.7,4.5c-3.6,2-6.5,4.9-9.7,7.5
		c-3.1,2.5-6.5,4.2-10.6,3.6c-7-0.9-13.1-6.4-20.4-5.9c-4.7,0.3-8,3.8-12.4,4.9c-5.2,1.3-10.7-0.5-15.7-2.1
		C244.2,129.7,243.9,130.9,244.7,131.1L244.7,131.1L244.7,131.1z"/>
	<path class="st4 phone1" d="M257.9,137.6c2.5,0,4.5-2,4.5-4.5c0-2.5-2-4.5-4.5-4.5c-2.5,0-4.5,2-4.5,4.5
		C253.4,135.6,255.4,137.6,257.9,137.6z"/>
	<path class="st4 phone1" d="M296.8,137.8c2.5,0,4.5-2,4.5-4.5c0-2.5-2-4.5-4.5-4.5c-2.5,0-4.5,2-4.5,4.5
		C292.3,135.8,294.3,137.8,296.8,137.8z"/>
	<path class="st4 phone1" d="M336.4,122.5c2.5,0,4.5-2,4.5-4.5c0-2.5-2-4.5-4.5-4.5c-2.5,0-4.5,2-4.5,4.5
		C331.9,120.5,333.9,122.5,336.4,122.5z"/>
	<path class="st4 phone5" d="M376.1,446.8h-17.9c-3.1,0-5.7-2.5-5.7-5.7c-3.4-9.2-3.8-17.5,0-24.4c0-3.1,2.5-5.7,5.7-5.7
		c5.3-3.8,11.5-2.7,17.9,0c3.1,0,5.7,2.5,5.7,5.7c-2.2,7.8-2,16,0,24.4C381.8,444.2,379.2,446.8,376.1,446.8z"/>
	<path class="st1" d="M374.4,421.9h-14.5c-0.5,0-0.9-0.4-0.9-0.9c0-0.5,0.4-0.9,0.9-0.9h14.5c0.5,0,0.9,0.4,0.9,0.9
		C375.3,421.5,374.9,421.9,374.4,421.9z"/>
	<path class="st1" d="M374.4,429.1h-14.5c-0.5,0-0.9-0.4-0.9-0.9c0-0.5,0.4-0.9,0.9-0.9h14.5c0.5,0,0.9,0.4,0.9,0.9
		C375.3,428.7,374.9,429.1,374.4,429.1z"/>
	<path class="st1" d="M374.4,436.4h-14.5c-0.5,0-0.9-0.4-0.9-0.9c0-0.5,0.4-0.9,0.9-0.9h14.5c0.5,0,0.9,0.4,0.9,0.9
		C375.3,435.9,374.9,436.4,374.4,436.4z"/>
</g>
<g class="man">
	<path class="st5" d="M656.3,455l-9.6,6.6l-29.9-33.9l14.2-9.7L656.3,455z"/>
	<path class="st6" d="M623.3,477.3c0,0.7,1,2.4,1.4,3c1.2,1.8,3.7,2.3,5.5,1l29.7-20.4c1.2-0.8,1.5-2.5,0.7-3.7l-0.8-1.2
		c0,0-1.1-4.7-7.2-7.2c0,0-1.3,6.2-10.8,4.4l-3.7-1.9l-6,17l-6.1,5.4C624.6,474.8,623.2,475.5,623.3,477.3L623.3,477.3L623.3,477.3
		L623.3,477.3z"/>
	<path class="st5" d="M585.6,472.4l-11.6,0l-5.5-44.9l14.2,1.8L585.6,472.4z"/>
	<path class="st6" d="M545.8,472.1c-0.4,0.6-0.6,2.6-0.6,3.3c0,2.2,1.8,3.9,3.9,3.9h36c1.5,0,2.7-1.2,2.7-2.7v-1.5
		c0,0,1.8-4.5-1.9-10.1c0,0-4.6,4.4-11.4-2.5l-2-3.6l-14.5,10.6l-8.1,1C548.3,470.9,546.7,470.6,545.8,472.1L545.8,472.1
		L545.8,472.1z"/>
	<path class="st3" d="M566.8,149.9l-10.4,13.4l4.9,102.5l38.5-0.8l6.6-89.4l-8.2-23l-3-5.1l-3.5-6.7l-22.7,1.6L566.8,149.9
		L566.8,149.9L566.8,149.9z"/>
	<path class="st5" d="M578.2,139.9c11.2,0,20.3-9.1,20.3-20.4c0-11.2-9.1-20.4-20.3-20.4c-11.2,0-20.3,9.1-20.3,20.4
		C557.9,130.8,567,139.9,578.2,139.9z"/>
	<path class="st6" d="M593.2,136.2c1.1,0.2,2.4-2.5,3.7-5.2c2.6-5.5,4.3-9.1,4.4-14c0.1-4.2-1.1-3.1-2.2-12.6
		c-0.4-3.1-5.7-3.1-6.8-4.6c-1.8-2.5,1-3.5-3.6-5c-8.5-2.8-12.4,1.6-17.8,1.9c-0.1,0-2.8,2.6-4.3,2.8c-2.6,0.2-6.4-0.2-8.1-4.2
		c-1.6-3.7-2.6,7.2-1.2,8.5c1.2,1.1,3.3,4,3.3,4.2c0.1,0.2-4.9-5.3-5.8-3c-0.6,1.6,1.3,10.1,2.8,10.4c1.3,0.3,4.4-3.9,3.7-2.2
		c-1.6,4,8.2,6.6,19.9-1.5c0.4-0.3,0,0.2,1.5,3.7c1.8,4.4,2.2,4.7,2.2,5.9c-0.1,2.7-2.1,3.4-1.5,5.2c0.5,1.4,2.3,2.5,3.7,2.2
		c1.6-0.3,1.8-2.3,3-2.2c1,0,2.1,1.5,2.2,3c0.2,3.1-4.4,3.9-5.2,8.1C586.8,140.1,592.2,136.1,593.2,136.2L593.2,136.2z"/>
	<path class="st5" d="M639.2,299L639.2,299c-0.1,5.7-3.2,10.3-6.8,10.2c-3.6-0.1-6.5-4.8-6.3-10.5c0-2.3,0.6-4.5,1.7-6.5l0.2-4.9
		l10.4-0.2l-0.5,5.4C638.8,294.4,639.3,296.7,639.2,299z"/>
	<path class="st6" d="M628.5,450l23.8-13.6l-39.9-55l10.3-85c1.1-1.9,1.9-5.4,0.5-11.9c-4.7-8.1-1.7-19.5-1.7-19.5l-6.2-22.9
		l1.6-21.3l1.5-7.2l5.6,17.3l2.6,56.4l1.3,0l10.4-0.2l3.2-0.1l1.2-61.8c0,0-7.4-45.7-9.9-55.9c-0.7-3.1-3.3-4.9-6.5-5.9
		c-9.6-7.2-20.3-12.4-31.8-16l-10.9,28.6l-16.2-26.1l-6.1,4.5c-4.6,1.2-8.8,2.8-12.7,4.8c-6,0.8-12.2,2.9-13,8.1
		c-1.7,10.4-5.5,56.5-5.5,56.5l6,61.5l3.2-0.2l2.9-0.2l-1.7,6c0,0-6,9.1,4.5,11.6l0.8,9.9l-1.7,8.4l3.2,8.9l3.9,46.9l20.2,80.9
		l15.4,3.3l-7.4-80.8l5.1-59.5l0.6,0.3l-1.3,64.4L628.5,450z M550.9,258.4l-0.8,1.6l-1.1-32.1l2.7-11.1l1.7,17.5L550.9,258.4z"/>
	<path class="st5" d="M546.9,306.7c-3.6,0.4-7-3.9-7.6-9.6v0c-0.3-2.3,0-4.6,0.8-6.7l-0.9-5.3l10.4-0.6l0.6,4.9
		c1.2,1.9,2,4.1,2.2,6.4C553,301.4,550.5,306.3,546.9,306.7z"/>
</g>
<g class="woman">
	<path class="st5" d="M86.1,428.8l10.7,0.3l-4,32.6l-7.2-0.2L86.1,428.8z"/>
	<path class="st6" d="M110.3,476.5L110.3,476.5c0-0.9-0.5-1.7-1.2-2l-8-3.9l-5.4-12.6l-0.1-12.7l-11.2-1.3l-1.6,8.1
		c0,0,3.3-0.5-0.8,3.1c-4.1,3.6-2.1,10.6-2.1,10.6L79,478.8h7.4l0.4-8.1c5.8,2.4,7.2,8.1,7.2,8.1h14.4
		C109.5,478.8,110.3,477.8,110.3,476.5L110.3,476.5L110.3,476.5z"/>
	<path class="st5" d="M101.7,429.1l10.7,0.3l-4,32.6l-7.2-0.2L101.7,429.1z"/>
	<path class="st6" d="M126,476.9L126,476.9c0-0.9-0.5-1.7-1.2-2l-8-3.9l-5.4-12.6l-0.1-12.7l-11.2-1.3l-1.6,8.1c0,0,3.3-0.5-0.8,3.1
		c-4.1,3.6-2.1,10.6-2.1,10.6l-0.9,13.1h7.4l0.4-8.1c5.8,2.4,7.2,8.1,7.2,8.1h14.4C125.1,479.1,126,478.1,126,476.9L126,476.9
		L126,476.9z"/>
	<path class="st6" d="M89.5,238.1l-12.1,29c-4,9.7-5.3,20.2-3.7,30.6l5.9,142.3h23.3L113,313.2l2,50l-23.3,71.3h22.9l29.4-71.3
		l2.2-54.9l-10.5-42.6L89.5,238.1L89.5,238.1z"/>
	<path class="st7" d="M74.6,274.6c-13.3,38,3.7,68,0.1,48.6c-2.9-16.1,47.3-65.3,62.4-55.1c-0.3-1.6-9.9-31.2-10.9-31.3
		c1.3-3.3-0.5-3.4-0.6-5.1c-0.3-6.6,1.2-13.4,4.2-20.4c1.9-5.4,2-10.1,0.1-13.8c-1.6-3.1-4.4-5.4-7.6-6.6l-9.9-12
		c-2.6-3.1-6.4-9.8-10.4-9.8l-21.7-0.8c-0.6-0.4-8.2,6.2-15.7,9.4c-8,3.5-6.4,13-6.4,13.2l0,0.1l0.1,0.1l11.8,34.9l10.7,10
		c-0.5,1.6-0.4,2.8,0.6,3.4c-1.5,1.1-7.9,33.3-6.9,34.5V274.6L74.6,274.6z"/>
	<path class="st5" d="M186.1,205.7c-1.6,0.6-3.1,1.7-4.2,3l-17.2,5.9l3,8.1l17.1-6.9c1.7,0.1,3.5-0.2,5.1-0.9c4-1.7,6.4-5.1,5.4-7.7
		C194.3,204.7,190.2,204,186.1,205.7L186.1,205.7L186.1,205.7z"/>
	<path class="st7" d="M94.4,179.6l39.2,53l46-12.7l-2-12l-35,6.6l-19.5-30C116.7,172.2,104.2,169.7,94.4,179.6L94.4,179.6
		L94.4,179.6z"/>
	<path class="st6" d="M107.1,163.8l-31.4,2.9L74.7,134l34.2-1L107.1,163.8z"/>
	<path class="st5" d="M91.2,159.4c9.1,0,16.5-7.4,16.5-16.5c0-9.1-7.4-16.5-16.5-16.5c-9.1,0-16.5,7.4-16.5,16.5
		C74.7,152,82.1,159.4,91.2,159.4z"/>
	<path class="st6" d="M104.4,126.9c-0.1-4.1-5.2-4.5-9.2-5.5l-3.6-1.9c-3.5-0.9-7.3-0.3-10.3,1.7l-9.6,5.8c-4.3,2.8-5,7.4-6.7,12.3
		l-3.2,7.1c-1.7,4.8,0.6,11.1,2.3,15.9l0.7,2l-1.1,6.5l20-0.9l1.8-10.1l-3.4-3.8c-1.2-1.4-1.3-3.4-0.2-4.9l0,0
		c3.9-5.3,3.1-12.7,3.1-12.7l4.9,2.7c3.2,0.4,6.1,0.4,8.6-0.1c2.8-0.6,5.1-1.7,7.1-3.5l1.7,5.9c0.4,7.3-0.9,9.2-7.4,16.4l11.4,7.2
		l-0.4-3.9c-1-9.2,2.1-16.5,1.6-24C112.1,133.8,109.1,129.2,104.4,126.9L104.4,126.9L104.4,126.9z"/>
	<path class="st5" d="M107.2,265.9c-1.6-0.7-3.4-0.9-5.1-0.8l-16.5-7.7l-3.4,7.9l17.1,7c1.2,1.3,2.6,2.3,4.2,2.9
		c4,1.6,8.2,0.8,9.2-1.8C113.7,270.9,111.2,267.5,107.2,265.9L107.2,265.9z"/>
	<path class="st7" d="M59.3,183.4l-8.6,65.4l41.9,22.9l6.9-10L69.7,242l6.8-35.2C80.5,193.6,73.1,183,59.3,183.4L59.3,183.4
		L59.3,183.4z"/>
</g>
</svg>
