<svg width="691" height="482" viewBox="0 0 691 482" fill="none" xmlns="http://www.w3.org/2000/svg">
<g>
<path d="M417.758 114.192V41.8622C417.758 18.7424 399.031 5.83757e-09 375.931 5.83757e-09H222.818C199.717 -0.000381937 180.991 18.7417 180.99 41.8616V438.668C180.99 461.788 199.717 480.53 222.817 480.53H375.929C399.029 480.53 417.756 461.788 417.756 438.668V165.678C419.211 165.678 420.39 164.497 420.39 163.041L420.392 116.829C420.392 115.373 419.213 114.192 417.758 114.192Z" fill="#3F3D56"/>
</g>
<path d="M409.902 38.3814V440.794C385.458 439.291 397.892 471.526 378.19 472.539H221.936C204.415 472.542 190.208 458.33 190.203 440.794V38.3814C190.208 20.8462 204.414 6.63448 221.934 6.63672H233.458C230.32 14.3605 255.647 16.8734 257.588 16.8759H337.614C345.944 16.8653 366.043 8.43681 365.312 6.63672H378.184C395.698 6.63972 409.896 20.8469 409.902 38.3754V38.3814Z" fill="white"/>
<path d="M179.759 123.052C178.644 123.052 177.738 123.959 177.738 125.074V141.252C177.738 142.367 178.644 143.274 179.759 143.274C180.873 143.274 181.779 142.367 181.779 141.252V125.074C181.779 123.959 180.873 123.052 179.759 123.052Z" fill="#3F3D56"/>
<path d="M179.759 171.585C178.644 171.585 177.738 172.492 177.738 173.607V204.951C177.738 206.067 178.644 206.974 179.759 206.974C180.873 206.974 181.779 206.067 181.779 204.951V173.607C181.779 172.492 180.873 171.585 179.759 171.585Z" fill="#3F3D56"/>
<path d="M179.759 216.073C178.644 216.073 177.738 216.98 177.738 218.095V249.44C177.738 250.555 178.644 251.462 179.759 251.462C180.873 251.462 181.779 250.555 181.779 249.44V218.095C181.779 216.98 180.873 216.073 179.759 216.073Z" fill="#3F3D56"/>
<path d="M356.892 163.578H241.241C233.314 163.569 226.89 157.14 226.881 149.206V99.4516C226.89 91.5177 233.314 85.0881 241.241 85.0792C278.144 74.8464 316.849 75.8053 356.892 85.0792C364.819 85.0886 371.242 91.518 371.251 99.4516V149.206C371.242 157.139 364.819 163.569 356.892 163.578Z" fill="#F2F2F2"/>
<path d="M368.673 215.722H229.459C228.036 215.721 226.882 214.566 226.881 213.142V178.58C226.883 177.156 228.036 176.002 229.459 176H368.673C370.096 176.002 371.249 177.156 371.251 178.58V213.143C371.249 214.567 370.096 215.721 368.673 215.723V215.722ZM229.459 177.032C228.605 177.033 227.913 177.725 227.912 178.58V213.143C227.913 213.997 228.605 214.69 229.459 214.691H368.673C369.527 214.69 370.219 213.997 370.22 213.143V178.58C370.219 177.725 369.527 177.033 368.673 177.032H229.459Z" fill="#E6E6E6"/>
<path d="M272.511 188.634C271.514 188.655 270.723 189.481 270.745 190.478C270.765 191.446 271.544 192.226 272.511 192.246H357.586C358.582 192.284 359.42 191.507 359.459 190.51C359.497 189.513 358.72 188.674 357.724 188.635H272.511V188.634Z" fill="#E6E6E6"/>
<path d="M272.511 199.474C271.514 199.495 270.723 200.32 270.745 201.318C270.765 202.286 271.544 203.065 272.511 203.086H357.586C358.582 203.124 359.42 202.347 359.459 201.35C359.497 200.353 358.72 199.513 357.724 199.475H272.511V199.474Z" fill="#E6E6E6"/>
<path d="M248.614 203.087C252.601 203.087 255.833 199.852 255.833 195.862C255.833 191.872 252.601 188.637 248.614 188.637C244.627 188.637 241.395 191.872 241.395 195.862C241.395 199.852 244.627 203.087 248.614 203.087Z" fill="#E6E6E6"/>
<path d="M368.673 385.367H229.459C228.036 385.365 226.882 384.211 226.881 382.786V348.225C226.883 346.8 228.036 345.646 229.459 345.645H368.673C370.096 345.646 371.249 346.8 371.251 348.225V382.787C371.249 384.211 370.096 385.366 368.673 385.367ZM229.459 346.677C228.605 346.677 227.913 347.37 227.912 348.225V382.787C227.913 383.642 228.605 384.334 229.459 384.335L352.859 383.118C353.713 383.117 366.661 378.284 366.662 377.43L370.22 348.225C370.219 347.37 369.527 346.677 368.673 346.677H229.459Z" fill="#E6E6E6"/>
<path d="M272.511 363.43C271.514 363.409 270.689 364.201 270.668 365.198C270.647 366.196 271.438 367.021 272.435 367.042C272.46 367.043 272.486 367.043 272.511 367.042H357.586C358.582 367.08 359.421 366.303 359.459 365.306C359.497 364.309 358.72 363.47 357.724 363.432H272.511V363.43Z" fill="#E6E6E6"/>
<path d="M248.614 372.731C252.601 372.731 255.833 369.497 255.833 365.506C255.833 361.516 252.601 358.281 248.614 358.281C244.627 358.281 241.395 361.516 241.395 365.506C241.395 369.497 244.627 372.731 248.614 372.731Z" fill="#E6E6E6"/>
<path d="M368.673 313.854H229.459C228.036 313.852 226.882 312.698 226.881 311.274V276.712C226.883 275.288 228.036 274.134 229.459 274.132H368.673C370.096 274.134 371.249 275.288 371.251 276.712V311.275C371.249 312.699 370.096 313.853 368.673 313.855V313.854ZM229.459 275.164C228.605 275.165 227.913 275.857 227.912 276.712V311.275C227.913 312.129 228.605 312.822 229.459 312.823L352.859 311.605C353.713 311.605 366.661 306.772 366.662 305.917L370.22 276.712C370.219 275.857 369.527 275.165 368.673 275.164H229.459Z" fill="#E6E6E6"/>
<path d="M272.511 291.917C271.514 291.896 270.689 292.688 270.668 293.685C270.647 294.683 271.438 295.509 272.435 295.53C272.46 295.53 272.486 295.53 272.511 295.53H357.586C358.582 295.568 359.421 294.79 359.459 293.793C359.497 292.796 358.72 291.957 357.724 291.919H272.511V291.917Z" fill="#E6E6E6"/>
<path d="M248.614 301.219C252.601 301.219 255.833 297.984 255.833 293.994C255.833 290.003 252.601 286.769 248.614 286.769C244.627 286.769 241.395 290.003 241.395 293.994C241.395 297.984 244.627 301.219 248.614 301.219Z" fill="#E6E6E6"/>
<path d="M244.657 131.125C248.881 132.529 253.309 133.95 257.818 133.71C259.87 133.601 261.843 133.111 263.705 132.24C265.613 131.347 267.358 130.134 269.29 129.287C276.391 126.177 283.433 131.491 290.055 133.485C293.36 134.48 296.834 134.718 300.066 133.332C303.637 131.801 306.33 128.879 309.27 126.439C315.862 120.969 324.463 118.02 333.018 118.242C342.403 118.487 351.487 122.636 357.95 129.422C358.492 129.991 359.352 129.128 358.811 128.56C353.163 122.629 345.553 118.631 337.448 117.419C329.326 116.205 320.894 117.828 313.753 121.876C310.139 123.924 307.241 126.728 304.057 129.345C300.957 131.893 297.51 133.536 293.423 132.994C286.382 132.061 280.325 126.631 273.023 127.123C268.358 127.437 265.027 130.95 260.639 132.069C255.403 133.405 249.93 131.595 244.981 129.95C244.236 129.702 243.916 130.879 244.657 131.125Z" fill="#3F3D56"/>
<path d="M257.878 137.62C260.37 137.62 262.39 135.598 262.39 133.105C262.39 130.611 260.37 128.59 257.878 128.59C255.387 128.59 253.367 130.611 253.367 133.105C253.367 135.598 255.387 137.62 257.878 137.62Z" fill="#F16A21"/>
<path d="M296.822 137.82C299.313 137.82 301.333 135.799 301.333 133.305C301.333 130.811 299.313 128.79 296.822 128.79C294.33 128.79 292.311 130.811 292.311 133.305C292.311 135.799 294.33 137.82 296.822 137.82Z" fill="#F16A21"/>
<path d="M336.373 122.505C338.864 122.505 340.884 120.483 340.884 117.99C340.884 115.496 338.864 113.475 336.373 113.475C333.881 113.475 331.861 115.496 331.861 117.99C331.861 120.483 333.881 122.505 336.373 122.505Z" fill="#F16A21"/>
<path d="M376.086 446.781H358.191C355.066 446.781 352.523 444.236 352.523 441.108C349.131 431.884 348.703 423.609 352.523 416.697C352.523 413.57 355.066 411.024 358.191 411.024C363.483 407.183 369.652 408.35 376.086 411.024C379.211 411.024 381.754 413.57 381.754 416.697C379.582 424.518 379.74 432.678 381.754 441.108C381.754 444.236 379.211 446.781 376.086 446.781Z" fill="#F16A21"/>
<path d="M374.356 421.888H359.903C359.404 421.888 359 421.483 359 420.984C359 420.485 359.404 420.08 359.903 420.08H374.356C374.855 420.08 375.259 420.485 375.259 420.984C375.259 421.483 374.855 421.888 374.356 421.888Z" fill="white"/>
<path d="M374.356 429.119H359.903C359.404 429.119 359 428.714 359 428.215C359 427.715 359.404 427.311 359.903 427.311H374.356C374.855 427.311 375.259 427.715 375.259 428.215C375.259 428.714 374.855 429.119 374.356 429.119Z" fill="white"/>
<path d="M374.356 436.351H359.903C359.404 436.351 359 435.946 359 435.447C359 434.948 359.404 434.543 359.903 434.543H374.356C374.855 434.543 375.259 434.948 375.259 435.447C375.259 435.946 374.855 436.351 374.356 436.351Z" fill="white"/>
<path d="M691 479.646H0V481.014H691V479.646Z" fill="#E6E6E6"/>
<path d="M656.326 454.952L646.738 461.525L616.842 427.64L630.993 417.938L656.326 454.952Z" fill="#FFB6B6"/>
<path d="M623.329 477.258C623.375 477.966 624.329 479.698 624.729 480.283C625.961 482.082 628.415 482.541 630.213 481.309L659.904 460.95C661.13 460.109 661.443 458.433 660.603 457.206L659.756 455.969C659.756 455.969 658.68 451.243 652.519 448.733C652.519 448.733 651.217 454.899 641.753 453.129L638.041 451.262L632.06 468.257L625.975 473.632C624.644 474.808 623.214 475.485 623.329 477.258Z" fill="#2F2E41"/>
<path d="M585.637 472.403L574.015 472.401L568.486 427.536L582.712 429.309L585.637 472.403Z" fill="#FFB6B6"/>
<path d="M545.818 472.139C545.457 472.749 545.266 474.718 545.266 475.427C545.266 477.607 547.032 479.375 549.21 479.375H585.201C586.687 479.375 587.892 478.169 587.892 476.682V475.182C587.892 475.182 589.673 470.674 586.007 465.119C586.007 465.119 581.451 469.469 574.643 462.656L572.636 459.016L558.104 469.652L550.05 470.645C548.287 470.862 546.725 470.611 545.819 472.139H545.818Z" fill="#2F2E41"/>
<path d="M544.889 301.901L545.764 312.481L544.023 320.894L547.193 329.764L551.069 376.662L571.274 457.519L586.701 460.769L579.295 380.003L585.04 313.384L544.889 301.901Z" fill="#2F2E41"/>
<path d="M610.448 255.971L551.446 256.791L544.891 301.899L585.041 320.763L583.76 385.186L628.476 449.97L652.291 436.352L612.385 381.335L623.559 289.596L610.448 255.971Z" fill="#2F2E41"/>
<path d="M566.771 149.922L556.361 163.292L561.279 265.811L599.793 264.991L606.348 175.595L598.154 152.63L595.189 147.484L591.643 140.82L568.908 142.446L566.771 149.922Z" fill="#E6E6E6"/>
<path d="M551.4 213.322L553.481 234.274L550.924 258.385L547.727 264.922L540.42 290.926C540.42 290.926 532.962 302.298 549.351 303.116C565.74 303.933 619.46 298.613 619.46 298.613C619.46 298.613 626.158 298.448 623.239 284.425C618.524 276.315 621.564 264.886 621.564 264.886L615.363 242.022L617.001 220.698L628.474 164.927C618.285 156.913 606.873 151.178 594.466 147.293L583.6 175.89L567.422 149.754L561.276 154.265C552.987 156.44 545.692 159.786 539.922 164.927L551.4 213.322Z" fill="#2F2E41"/>
<path d="M578.249 139.873C589.482 139.873 598.588 130.759 598.588 119.516C598.588 108.274 589.482 99.1602 578.249 99.1602C567.016 99.1602 557.91 108.274 557.91 119.516C557.91 130.759 567.016 139.873 578.249 139.873Z" fill="#FFB6B6"/>
<path d="M593.187 136.242C594.307 136.433 595.623 133.715 596.879 131.068C599.51 125.527 601.183 122.005 601.31 117.026C601.419 112.782 600.241 113.896 599.095 104.461C598.717 101.349 593.405 101.355 592.324 99.8778C590.498 97.3819 593.3 96.3525 588.756 94.8531C580.246 92.0448 576.398 96.4075 570.993 96.7833C570.857 96.7929 568.178 99.4152 566.681 99.5509C564.06 99.7884 560.278 99.3797 558.582 95.382C556.997 91.6441 555.947 102.567 557.364 103.919C558.567 105.067 560.642 107.947 560.695 108.157C560.755 108.394 555.76 102.856 554.927 105.138C554.327 106.781 556.215 115.23 557.741 115.548C559.017 115.813 562.137 111.604 561.433 113.33C559.801 117.334 569.618 119.888 581.372 111.852C581.789 111.567 581.395 112.022 582.849 115.548C584.682 119.995 585.096 120.235 585.064 121.46C584.995 124.112 583.006 124.892 583.587 126.634C584.058 128.044 585.898 129.136 587.279 128.851C588.838 128.529 589.105 126.6 590.233 126.634C591.2 126.663 592.346 128.12 592.449 129.59C592.664 132.688 588.082 133.539 587.279 137.72C586.826 140.08 592.158 136.066 593.187 136.242Z" fill="#2F2E41"/>
<path d="M639.215 298.955C639.303 296.675 638.845 294.408 637.878 292.342L639.972 268.586L628.646 267.92L627.741 292.094C626.672 294.109 626.101 296.351 626.075 298.632C625.933 304.338 628.76 309.037 632.387 309.128C636.014 309.219 639.071 304.666 639.213 298.961L639.215 298.955Z" fill="#FFB6B6"/>
<path d="M615.12 203.161L624.051 230.791L626.615 287.222L641.566 286.916L642.726 225.103C642.726 225.103 635.275 179.428 632.78 169.162C630.285 158.896 607.279 162.7 607.279 162.7L615.12 203.161Z" fill="#2F2E41"/>
<path d="M539.302 297.059C539.889 302.736 543.292 307.036 546.901 306.662C550.51 306.287 552.961 301.382 552.374 295.704C552.171 293.432 551.426 291.242 550.203 289.316L547.414 265.287L536.174 266.837L540.117 290.357C539.314 292.492 539.034 294.788 539.3 297.054L539.302 297.059Z" fill="#FFB6B6"/>
<path d="M555.842 199.669L560.5 158.718C560.5 158.718 537.267 156.724 535.581 167.154C533.896 177.584 530.033 223.702 530.033 223.702L536.016 285.236L550.945 284.371L549.095 227.912L555.842 199.669Z" fill="#2F2E41"/>
<path d="M86.0896 428.761L96.7781 429.014L92.7409 461.581L85.498 461.41L86.0896 428.761Z" fill="#FFB6B6"/>
<path d="M110.348 476.533C110.348 475.649 109.888 474.849 109.178 474.498L101.201 470.554L95.7628 457.93L95.6804 445.212L84.4737 443.893L82.8529 451.995C82.8529 451.995 86.1901 451.496 82.0699 455.076C77.9498 458.656 79.9337 465.66 79.9337 465.66L79.0352 478.751H86.4514L86.8495 470.609C92.6176 473.059 94.0324 478.751 94.0324 478.751H108.409C109.48 478.751 110.348 477.758 110.348 476.533Z" fill="#2F2E41"/>
<path d="M101.746 429.12L112.434 429.373L108.397 461.94L101.154 461.769L101.746 429.12Z" fill="#FFB6B6"/>
<path d="M126.004 476.893C126.004 476.008 125.545 475.209 124.835 474.858L116.858 470.914L111.419 458.289L111.337 445.571L100.13 444.252L98.5092 452.354C98.5092 452.354 101.846 451.856 97.7262 455.436C93.6061 459.016 95.59 466.019 95.59 466.019L94.6914 479.11H102.108L102.506 470.969C108.274 473.418 109.689 479.11 109.689 479.11H124.065C125.136 479.11 126.004 478.117 126.004 476.893Z" fill="#2F2E41"/>
<path d="M89.4895 238.098L77.3724 267.055C73.3333 276.707 72.0533 287.293 73.6752 297.632L79.5644 439.888H102.848L113.012 313.209L115.017 363.248L91.7081 434.544H114.633L144.06 363.248L146.241 308.351L135.787 265.75L89.4895 238.098Z" fill="#2F2E41"/>
<path d="M74.6078 274.632C61.2699 312.641 78.2637 342.586 74.7371 323.269C71.7899 307.126 122.011 258.002 137.128 268.131C136.812 266.492 127.203 236.936 126.261 236.8C127.579 233.478 125.742 233.447 125.667 231.745C125.382 225.172 126.908 218.349 129.881 211.327C131.83 205.902 131.864 201.241 129.976 197.482C128.351 194.393 125.621 192.032 122.331 190.87L112.425 178.896C109.845 175.78 106.039 169.055 101.996 169.08L80.2899 168.304C79.6696 167.931 72.0477 174.491 64.6265 177.71C56.5776 181.204 58.238 190.741 58.2583 190.863L58.277 190.977L58.3655 191.058L70.1964 225.911L80.8859 235.937C80.3443 237.509 80.4799 238.689 81.494 239.366C80.0382 240.444 73.562 272.69 74.6078 273.82V274.632Z" fill="#FF9900"/>
<path d="M186.14 205.656C184.526 206.301 183.089 207.323 181.951 208.637L164.762 214.534L167.805 222.638L184.913 215.784C186.647 215.905 188.385 215.609 189.981 214.92C193.998 213.252 196.395 209.826 195.333 207.268C194.271 204.71 190.156 203.988 186.14 205.656Z" fill="#FFB6B6"/>
<path d="M94.4471 179.649L133.66 232.625L179.626 219.956L177.628 207.955L142.626 214.59L123.099 184.545C116.723 172.209 104.156 169.725 94.4471 179.648V179.649Z" fill="#FF9900"/>
<path d="M107.052 163.794L75.6626 166.654L74.7363 134.002L108.933 133.03L107.052 163.794Z" fill="#2F2E41"/>
<path d="M91.1802 159.411C100.278 159.411 107.653 152.029 107.653 142.924C107.653 133.818 100.278 126.437 91.1802 126.437C82.0823 126.437 74.707 133.818 74.707 142.924C74.707 152.029 82.0823 159.411 91.1802 159.411Z" fill="#FFB6B6"/>
<path d="M104.431 126.86C104.315 122.769 99.229 122.326 95.2663 121.316L91.6729 119.45C88.1458 118.551 84.4035 119.183 81.3663 121.19L71.7844 127C67.482 129.843 66.7986 134.439 65.0491 139.293L61.8824 146.399C60.1601 151.177 62.4361 157.509 64.1771 162.28L64.9066 164.28L63.7658 170.823L83.7339 169.89L85.5089 159.788L82.1004 155.953C80.891 154.593 80.7929 152.572 81.8647 151.101C85.7204 145.807 85.0058 138.389 85.0058 138.389L89.8853 141.053C93.0915 141.491 95.9486 141.443 98.4624 140.917C101.227 140.339 103.577 139.183 105.519 137.459L107.258 143.315C107.706 150.604 106.346 152.539 99.8546 159.668L111.237 166.82L110.816 162.95C109.815 153.742 112.868 146.482 112.44 138.988C112.144 133.806 109.065 129.19 104.431 126.86Z" fill="#2F2E41"/>
<path d="M107.157 265.881C105.549 265.222 103.806 264.958 102.075 265.111L85.6195 257.397L82.1816 265.341L99.2441 272.311C100.407 273.604 101.862 274.599 103.487 275.214C107.534 276.808 111.637 276.012 112.65 273.433C113.662 270.855 111.204 267.474 107.157 265.881Z" fill="#FFB6B6"/>
<path d="M59.2748 183.408L50.6934 248.777L92.5444 271.633L99.4397 261.613L69.6623 242.042L76.48 206.856C80.4594 193.55 73.1466 183.024 59.2754 183.408H59.2748Z" fill="#FF9900"/>
</svg>
